{"title":"Big Hero 6 2014 CAM XviD-INFERNO","uid":11600498,"size":984383984,"categoryP":"video","categoryS":"movies","magnet":"?xt=urn:btih:4a918ecb222d8ec638b99f41a873e8101a261257&amp;dn=Big+Hero+6+2014+CAM+XviD-INFERNO&amp;tr=udp%3A%2F%2Ftracker.openbittorrent.com%3A80&amp;tr=udp%3A%2F%2Fopen.demonii.com%3A1337&amp;tr=udp%3A%2F%2Ftracker.coppersurfer.tk%3A6969&amp;tr=udp%3A%2F%2Fexodus.desync.com%3A6969","seeders":4,"leechers":1,"uploader":"TvTeam","files":4,"time":1417336675,"description":" &lt;a href=&quot;https://www.torrenting.com&quot; rel=&quot;nofollow&quot; target=&quot;_NEW&quot;&gt;https://www.torrenting.com&lt;/a&gt;\n\nSign up is OPEN - for time being. Come and have fun.\n\n------------------------------------------------------------------[IMG]http://lookpic.com/O/i2/432/ZOpVLOPC.png[/IMG]\n\n[IMG]http://lookpic.com/O/i2/675/K2C2yy4y.jpeg[/IMG]\n\nSource: ACAB...THANKS\n &lt;a href=&quot;\nhttp://www.imdb.com/title/tt2245084/&quot; rel=&quot;nofollow&quot; target=&quot;_NEW&quot;&gt;\nhttp://www.imdb.com/title/tt2245084/&lt;/a&gt;\n\nFormat                           : AVI\nFormat/Info                      : Audio Video Interleave\nFile size                        : 932 MiB\nDuration                         : 1h 30mn\nOverall bit rate                 : 1 437 Kbps\nWriting library                  : VirtualDub build 35491/release\n\nVideo\nID                               : 0\nFormat                           : MPEG-4 Visual\nFormat profile                   : Advanced Simple@L5\nFormat settings, BVOP            : Yes\nFormat settings, QPel            : No\nFormat settings, GMC             : No warppoints\nFormat settings, Matrix          : Default (H.263)\nMuxing mode                      : Packed bitstream\nCodec ID                         : XVID\nCodec ID/Hint                    : XviD\nDuration                         : 1h 30mn\nBit rate                         : 1 300 Kbps\nWidth                            : 720 pixels\nHeight                           : 304 pixels\nDisplay aspect ratio             : 2.35:1\nFrame rate                       : 23.976 fps\nColor space                      : YUV\nChroma subsampling               : 4:2:0\nBit depth                        : 8 bits\nScan type                        : Progressive\nBits/(Pixel*Frame)               : 0.248\nStream size                      : 843 MiB (90%)\nWriting library                  : XviD 1.2.1 (UTC 2008-12-04)\n\nAudio\nID                               : 1\nFormat                           : MPEG Audio\nFormat version                   : Version 1\nFormat profile                   : Layer 3\nMode                             : Joint stereo\nMode extension                   : MS Stereo\nCodec ID                         : 55\nCodec ID/Hint                    : MP3\nDuration                         : 1h 30mn\nBit rate mode                    : Constant\nBit rate                         : 128 Kbps\nChannel(s)                       : 2 channels\nSampling rate                    : 48.0 KHz\nStream size                      : 83.0 MiB (9%)\nAlignment                        : Split accross interleaves\nInterleave, duration             : 42 ms (1.00 video frame)\nInterleave, preload duration     : 500 ms\n\nWorkdone:\nSource was good, but looks like 5 mins of the beginning is missing but dont look like it spoils the movie, We fix the perspective a bit better, lowered the Saturation, adjusted the RGB, Contrast, Levels, MSU Denoiser, Sharpen, and Delogo the watermark in the center.\n\nAudio:\nheard worse, does have alot of people laughing here and there and also added some audio enhancements.\n\n[IMG]http://lookpic.com/O/i2/865/BwofayWq.jpeg[/IMG]\n\n[IMG]http://lookpic.com/O/i2/807/bTZQF4L9.png[/IMG]\n[IMG]http://lookpic.com/O/i2/828/SwIFG5IM.png[/IMG]\n[IMG]http://lookpic.com/O/i2/1767/afdVFCQS.png[/IMG]\n[IMG]http://lookpic.com/O/i2/1628/p2yO3hCJ.png[/IMG]\n[IMG]http://lookpic.com/O/i2/1227/wkLW27ux.png[/IMG]\n[IMG]http://lookpic.com/O/i2/1390/HD3MWgES.png[/IMG]\n[IMG]http://lookpic.com/O/i2/1519/k2iXFmFr.png[/IMG]\n[IMG]http://lookpic.com/O/i2/626/JP5fqol.png[/IMG]\n[IMG]http://lookpic.com/O/i2/749/qbMMpt6.png[/IMG]\n[IMG]http://lookpic.com/O/i2/534/M7Go6cTq.png[/IMG]\n\nGreets go out too:\n\nTHC, Hive, CM8, BHRG, and all who put work in\n\n[IMG]http://www.myimg.us/images/02.20.12/24265.gif[/IMG]","torrent":{"xt":"urn:btih:4a918ecb222d8ec638b99f41a873e8101a261257","amp;dn":"Big+Hero+6+2014+CAM+XviD-INFERNO","amp;tr":["udp%3A%2F%2Ftracker.openbittorrent.com%3A80","udp%3A%2F%2Fopen.demonii.com%3A1337","udp%3A%2F%2Ftracker.coppersurfer.tk%3A6969","udp%3A%2F%2Fexodus.desync.com%3A6969"],"infoHash":"4a918ecb222d8ec638b99f41a873e8101a261257","infoHashBuffer":{"type":"Buffer","data":[74,145,142,203,34,45,142,198,56,185,159,65,168,115,232,16,26,38,18,87]},"announce":[],"urlList":[]}}